<?xml version="1.0" encoding="UTF-8"?>
<svg id="Layer_1" data-name="Layer 1" xmlns="http://www.w3.org/2000/svg" viewBox="0 0 3755 2000">
  <defs>
    <style>
      .cls-1 {
        fill: #847ac9;
      }

      .cls-2 {
        fill: #d46b55;
      }

      .cls-3 {
        fill: #fecc6b;
      }

      .cls-4 {
        fill: #f5995b;
      }

      .cls-5 {
        fill: #319377;
      }

      .cls-6 {
        fill: #fc7e91;
      }

      .cls-7 {
        fill: #7898f0;
      }
    </style>
  </defs>
  <circle class="cls-4" cx="1251.5" cy="1243.5" r="168.5"/>
  <circle class="cls-3" cx="1709.5" cy="1214.5" r="168.5"/>
  <circle class="cls-6" cx="773.5" cy="1251.5" r="168.5"/>
  <g>
    <path class="cls-4" d="M1199.51,157.56c1.98-.45,4.3-.56,6.34-.81,6.9-.87,14.44-.88,21.33-.02,18.81,2.35,37.92,8.95,54.77,17.49,36.65,18.57,63.56,50.76,77.35,89.35,3.86,10.8,6.22,22.22,8.54,33.44,2.1,10.21,3.7,20.61,4.14,31.04.9,21.31-2.16,43.42-11.05,63-15.75,34.68-51.27,58.81-87.36,68.25-40.78,10.67-84.91,5.2-123.8-9.85-19.16-7.42-37.68-17.3-53.2-30.89-7.35-6.44-14.33-12.98-20.33-20.74-5.49-7.1-9.92-14.75-13.82-22.82-12.85-26.61-14.96-58.05-8.93-86.75,2.49-11.85,6.51-22.99,11.75-33.89,5.26-10.93,12.14-20.94,19.01-30.91,3.56-5.18,7.73-9.75,11.47-14.76,3.11-4.16,6.19-8.25,9.64-12.14,6.4-7.21,13.23-14.56,21.25-19.96,7.86-5.29,15.96-9.83,25.26-12,4.85-1.13,9.63-2.6,14.5-3.63,4.94-1.04,28-2.23,33.14-3.39Z"/>
    <g>
      <circle cx="1275.16" cy="286.49" r="9.33"/>
      <circle cx="1157.3" cy="286.49" r="9.33"/>
      <path d="M1275.16,334.81c-26.64,0-48.32-21.68-48.32-48.32s21.68-48.32,48.32-48.32,48.32,21.68,48.32,48.32-21.68,48.32-48.32,48.32ZM1275.16,247.67c-21.41,0-38.82,17.41-38.82,38.82s17.41,38.82,38.82,38.82,38.82-17.41,38.82-38.82-17.41-38.82-38.82-38.82Z"/>
      <path d="M1157.3,334.81c-26.64,0-48.32-21.68-48.32-48.32s21.68-48.32,48.32-48.32,48.32,21.68,48.32,48.32-21.68,48.32-48.32,48.32ZM1157.3,247.67c-21.41,0-38.82,17.41-38.82,38.82s17.41,38.82,38.82,38.82,38.82-17.41,38.82-38.82-17.41-38.82-38.82-38.82Z"/>
      <path d="M1231.59,291.24h-30.71c-2.62,0-4.75-2.13-4.75-4.75s2.13-4.75,4.75-4.75h30.71c2.62,0,4.75,2.13,4.75,4.75s-2.13,4.75-4.75,4.75Z"/>
      <path d="M1318.73,291.24c-1.84,0-3.59-1.08-4.37-2.88-1.03-2.41.08-5.2,2.49-6.24l72.26-31c2.41-1.03,5.2.08,6.24,2.49,1.03,2.41-.08,5.2-2.49,6.24l-72.26,31c-.61.26-1.25.39-1.87.39Z"/>
      <path d="M1113.73,291.24c-.63,0-1.26-.12-1.87-.39l-72.26-31c-2.41-1.03-3.53-3.83-2.49-6.24,1.03-2.41,3.83-3.52,6.24-2.49l72.26,31c2.41,1.03,3.53,3.83,2.49,6.24-.77,1.8-2.53,2.88-4.37,2.88Z"/>
    </g>
    <path d="M1160.01,367.93c-2.59,0-4.71,2.79-4.75,6.27-.11,9.88,13.85,23.24,18.13,27.1,7.12,6.42,21.47,17.51,37.58,19.62,27.26,3.58,56.11-12.52,65.67-36.66,1.23-3.1.35-6.95-1.97-8.6-2.32-1.65-5.19-.46-6.42,2.64-7.75,19.58-33.03,33.02-56.35,29.96-23.54-3.09-45.26-28.44-47.15-34.52-.21-3.21-2.2-5.76-4.66-5.81-.02,0-.05,0-.07,0Z"/>
    <g>
      <circle cx="1311.69" cy="1217.06" r="9.33"/>
      <circle cx="1193.84" cy="1217.06" r="9.33"/>
      <path d="M1311.69,1265.38c-26.64,0-48.32-21.68-48.32-48.32s21.68-48.32,48.32-48.32,48.32,21.68,48.32,48.32-21.68,48.32-48.32,48.32ZM1311.69,1178.24c-21.41,0-38.82,17.41-38.82,38.82s17.41,38.82,38.82,38.82,38.82-17.41,38.82-38.82-17.41-38.82-38.82-38.82Z"/>
      <path d="M1193.84,1265.38c-26.64,0-48.32-21.68-48.32-48.32s21.68-48.32,48.32-48.32,48.32,21.68,48.32,48.32-21.68,48.32-48.32,48.32ZM1193.84,1178.24c-21.41,0-38.82,17.41-38.82,38.82s17.41,38.82,38.82,38.82,38.82-17.41,38.82-38.82-17.41-38.82-38.82-38.82Z"/>
      <path d="M1268.12,1221.81h-30.71c-2.62,0-4.75-2.13-4.75-4.75s2.13-4.75,4.75-4.75h30.71c2.62,0,4.75,2.13,4.75,4.75s-2.13,4.75-4.75,4.75Z"/>
      <path d="M1355.26,1221.81c-1.84,0-3.59-1.08-4.37-2.88-1.03-2.41.08-5.2,2.49-6.24l72.26-31c2.41-1.03,5.2.08,6.24,2.49,1.03,2.41-.08,5.2-2.49,6.24l-72.26,31c-.61.26-1.25.39-1.87.39Z"/>
      <path d="M1150.26,1221.81c-.63,0-1.26-.12-1.87-.39l-72.26-31c-2.41-1.03-3.53-3.83-2.49-6.24,1.03-2.41,3.83-3.52,6.24-2.49l72.26,31c2.41,1.03,3.53,3.83,2.49,6.24-.77,1.8-2.53,2.88-4.37,2.88Z"/>
    </g>
    <path d="M1196.54,1298.5c-2.59,0-4.71,2.79-4.75,6.27-.11,9.88,13.85,23.24,18.13,27.1,7.12,6.42,21.47,17.51,37.58,19.62,27.26,3.58,56.11-12.52,65.67-36.66,1.23-3.1.35-6.95-1.97-8.6-2.32-1.65-5.19-.46-6.42,2.64-7.75,19.58-33.03,33.02-56.35,29.96-23.54-3.09-45.26-28.44-47.15-34.52-.21-3.21-2.2-5.76-4.66-5.81-.02,0-.05,0-.07,0Z"/>
  </g>
  <g>
    <path class="cls-6" d="M826.44,159.2c3.68,1.04,7.33,2.15,10.94,3.42,9.4,3.29,18.12,7.73,26.65,12.84,8.59,5.14,16.78,11.13,24.67,17.28,10.18,7.94,19.79,16.99,28.33,26.66,14.16,16.04,26.28,34.11,35.2,53.58,4.1,8.96,7.63,17.84,9.47,27.56,1.81,9.56,2.85,19.09,2.85,28.83,0,17.71-3.98,35.86-12,51.72-8.67,17.16-19.41,33.66-33.66,46.75-6.78,6.23-13.19,12.87-20.64,18.33-7.64,5.6-16.06,10.05-24.74,13.8-16.5,7.12-34.91,9.91-52.8,9.91s-37.25-3.42-55.23-7.81c-7.06-1.73-13.77-4.2-20.56-6.75-6.63-2.48-13.61-5.26-19.57-9.12-11.44-7.4-22.45-15.45-32.27-24.93-4.36-4.21-8.51-8.64-12.36-13.33-3.98-4.84-7.15-10.02-10.6-15.24-6.65-10.06-11.51-21.1-15.46-32.46-3.79-10.91-5.54-22.72-7.2-34.11-1.69-11.56-2.57-23.63-1.28-35.26,1.45-13.04,3.92-25.88,7.61-38.48,3.94-13.42,10.11-26.43,18.65-37.53,8.96-11.64,19.76-22.09,31.81-30.53,6.49-4.55,13.07-8.68,19.94-12.63,6.85-3.94,14.7-7.52,22.28-9.77,8.95-2.65,18.49-3.51,27.76-4.17,5.32-.38,10.61-.64,15.94-.72,4.97-.07,29.82.31,36.26,2.13Z"/>
    <g>
      <path d="M858.49,277c0,5.15-4.18,9.33-9.33,9.33s-9.33-4.18-9.33-9.33,4.18-9.33,9.33-9.33,9.33,4.18,9.33,9.33Z"/>
      <path d="M754.64,277c0,5.15-4.18,9.33-9.33,9.33s-9.33-4.18-9.33-9.33,4.18-9.33,9.33-9.33,9.33,4.18,9.33,9.33Z"/>
      <path d="M801.43,346.55h-25.19c-1.54,0-2.96-.79-3.77-2.1-.81-1.3-.89-2.94-.2-4.31l20.15-40.65c1.09-2.2,3.75-3.09,5.95-2,2.2,1.09,3.09,3.75,2,5.95l-16.97,34.24h18.04c2.45,0,4.44,1.99,4.44,4.44s-1.99,4.44-4.44,4.44Z"/>
      <path d="M743.42,133.62c-11.12,12.14-21.96,25.35-30.21,39.64-6.98,12.08-8.02,27.44,5.91,34.84,11.82,6.28,27.07,5.11,39.83,3.18,15.01-2.28,29.66-7.8,42.47-15.95,11-7,26.34-18.11,23.97-33.09-2.38-15.04-19.45-19.79-32.3-16.31-13.19,3.57-25.21,13.43-30.08,26.33-4.81,12.74-.36,26.82,8.92,36.3,11.77,12.02,29.35,14.69,45.3,11.38,17.8-3.7,32.76-14.82,46.49-26.17,4.72-3.9-2.04-10.59-6.72-6.72-18.13,14.99-43.24,32.11-67.79,21.96-9.31-3.85-17.25-12.62-18.56-22.83-1.39-10.79,5.6-20.59,14.29-26.22,8.18-5.29,26.14-10.77,30.7,2.2,3.8,10.79-12.28,20.73-19.68,25.37-9.82,6.15-20.59,10.55-31.88,13.12-10.78,2.46-23.32,3.95-34.21,1.34-4.56-1.09-9.8-3.17-11.79-7.8-2.75-6.36,1.68-13.65,4.98-18.85,7.9-12.48,17.11-24.12,27.08-35.01,4.12-4.5-2.58-11.24-6.72-6.72h0Z"/>
      <path d="M749.64,393.73c22.95-.18,45.89-.35,68.84-.53-1.48-1.48-2.96-2.96-4.44-4.44-.02.88-.12,1.77-.23,2.65.14-1.1-.27,1.54-.36,1.98-.25,1.25-.56,2.5-.91,3.73-1.79,6.16-5.07,11.93-10.05,16.06-7.02,5.82-18.26,8.56-27.17,6.63-8.23-1.78-13.47-9.09-16.79-16.32-2.2-4.81-3.83-10.12-4.61-15.37-.84-5.63-9.4-3.24-8.56,2.36,2.2,14.65,10.2,31.87,25,37.13,10.38,3.69,24.29,1.09,33.53-4.58,7.44-4.56,12.72-11.58,15.88-19.64,1.79-4.58,3.03-9.69,3.15-14.63.06-2.39-2.08-4.46-4.44-4.44-22.95.18-45.89.35-68.84.53-5.71.04-5.72,8.92,0,8.88Z"/>
    </g>
  </g>
  <g>
    <path class="cls-3" d="M1601.89,165.63c7.64-5.32,15.58-11.06,24.45-14.25,10.65-3.83,22.32-4.87,33.57-4.84,5.83.02,11.4.06,17.18.88,6.28.89,12.58,1.64,18.84,2.69,13.49,2.27,27.39,5.84,39.71,11.87,5.86,2.87,11.53,5.9,17.07,9.37,5.87,3.68,12,7.09,17.44,11.42,11.68,9.31,22.74,19.94,32.09,31.59,7.54,9.39,13.49,19.63,18.77,30.44,3.08,6.29,5.29,12.78,7.28,19.48,2.27,7.65,4.72,15.15,6.63,22.91,1.29,5.23,2.25,10.58,2.92,15.91.76,6.03,1.84,12.02,2.17,18.11.31,5.86-.1,11.66-.98,17.45-1.02,6.7-1.69,13.44-3.62,19.96-1.31,4.42-3.01,8.67-4.3,13.1-1.65,5.67-4.2,11.12-6.93,16.34-5.82,11.09-12.95,21.33-21.33,30.59-6.52,7.2-12.91,14.69-20.01,21.33-6.85,6.41-14.77,11.4-23.22,15.41-2.88,1.36-5.85,2.55-8.66,4.04-3.38,1.79-6.8,3.66-10.49,4.72-3.34.96-6.75,1.69-10.08,2.66-3.97,1.16-7.98,2.59-12.12,3.06-13.53,1.53-27.03,3.2-40.62,4.13-2.84.19-5.71.07-8.56.06-3.53,0-7.03.33-10.56.33-8,0-16.06-1.49-23.79-3.43-12.87-3.24-27.2-4.78-38.96-11.28-4.85-2.68-9.89-5.12-14.86-7.57-6.27-3.09-12.14-6.85-17.89-10.81-4.33-2.99-9.62-5.86-12.9-10.09-1.63-2.09-3.66-3.57-5.48-5.48-2.12-2.23-4.07-4.71-6.03-7.07-6.9-8.35-13.33-17.13-18.12-26.88-2.08-4.23-3.52-8.76-5.16-13.19-2.09-5.65-4.7-11.29-6.3-17.1-1.3-4.72-2.54-9.41-4.05-14.06-.84-2.59-1.06-5.24-1.64-7.87-.71-3.23-1.84-6.49-2.19-9.78-1.48-14.14-2.42-28.3-.62-42.45.75-5.89,2.8-12.14,4.76-17.73,2.48-7.07,6.45-13.89,10.11-20.42,9.07-16.21,21.91-30.42,34.97-43.51,6.76-6.77,13.6-13.64,21.08-19.62,4.09-3.28,8.59-6.39,12.95-9.31,2.01-1.35,4.15-2.47,6.14-3.85,2.88-1.99,5.92-3.47,11.37-7.27Z"/>
    <g>
      <path d="M1699.71,313.92c-1.14,0-2.28-.41-3.19-1.24-1.94-1.76-2.08-4.77-.32-6.71,6.45-7.1,13.72-10.74,21.59-10.82.09,0,.18,0,.26,0,11.84,0,20.55,8.22,22.95,10.75,1.8,1.9,1.72,4.91-.18,6.72-1.9,1.8-4.91,1.72-6.72-.18-1.75-1.85-8.07-7.86-16.22-7.78-5.12.05-10.05,2.65-14.66,7.71-.94,1.03-2.22,1.55-3.52,1.55Z"/>
      <path d="M1602.77,313.92c-1.14,0-2.28-.41-3.19-1.24-1.94-1.76-2.08-4.77-.32-6.71,6.45-7.1,13.72-10.74,21.59-10.82,11.99-.09,20.79,8.2,23.21,10.75,1.8,1.9,1.72,4.91-.18,6.71-1.9,1.8-4.91,1.72-6.71-.18-1.75-1.85-8.07-7.86-16.22-7.78-5.12.05-10.05,2.65-14.66,7.71-.94,1.03-2.22,1.55-3.52,1.55Z"/>
    </g>
    <path d="M1669.03,405.4c-34.45,0-57.1-33.23-58.06-34.66-.98-1.46-1.07-3.33-.24-4.88.83-1.55,2.44-2.51,4.19-2.51h110.48c1.77,0,3.4.99,4.21,2.56.82,1.57.69,3.47-.33,4.92-.97,1.38-24.08,33.75-59.02,34.56-.41,0-.82.01-1.23.01ZM1624.86,372.85c8.32,9.16,24.67,23.56,45.18,23.04,20.37-.47,36.65-14.15,45.1-23.04h-90.29Z"/>
    <g>
      <path d="M1742.14,1180.74c-1.14,0-2.28-.41-3.19-1.24-1.94-1.76-2.08-4.77-.32-6.71,6.45-7.1,13.72-10.74,21.59-10.82.09,0,.18,0,.26,0,11.84,0,20.55,8.22,22.95,10.75,1.8,1.9,1.72,4.91-.18,6.72-1.9,1.8-4.91,1.72-6.72-.18-1.75-1.85-8.07-7.86-16.22-7.78-5.12.05-10.05,2.65-14.66,7.71-.94,1.03-2.22,1.55-3.52,1.55Z"/>
      <path d="M1645.2,1180.74c-1.14,0-2.28-.41-3.19-1.24-1.94-1.76-2.08-4.77-.32-6.71,6.45-7.1,13.72-10.74,21.59-10.82,11.99-.09,20.79,8.2,23.21,10.75,1.8,1.9,1.72,4.91-.18,6.71-1.9,1.8-4.91,1.72-6.71-.18-1.75-1.85-8.07-7.86-16.22-7.78-5.12.05-10.05,2.65-14.66,7.71-.94,1.03-2.22,1.55-3.52,1.55Z"/>
    </g>
    <path d="M1711.46,1272.22c-34.45,0-57.1-33.23-58.06-34.66-.98-1.46-1.07-3.33-.24-4.88.83-1.55,2.44-2.51,4.19-2.51h110.48c1.77,0,3.4.99,4.21,2.56.82,1.57.69,3.47-.33,4.92-.97,1.38-24.08,33.75-59.02,34.56-.41,0-.82.01-1.23.01ZM1667.3,1239.67c8.32,9.16,24.67,23.56,45.18,23.04,20.37-.47,36.65-14.15,45.1-23.04h-90.29Z"/>
  </g>
  <g>
    <path class="cls-2" d="M2923.72,157.56c1.98-.45,4.3-.56,6.34-.81,6.9-.87,14.44-.88,21.33-.02,18.81,2.35,37.92,8.95,54.77,17.49,36.65,18.57,63.56,50.76,77.35,89.35,3.86,10.8,6.22,22.22,8.54,33.44,2.1,10.21,3.7,20.61,4.14,31.04.9,21.31-2.16,43.42-11.05,63-15.75,34.68-51.27,58.81-87.36,68.25-40.78,10.67-84.91,5.2-123.8-9.85-19.16-7.42-37.69-17.3-53.2-30.89-7.35-6.44-14.33-12.98-20.33-20.74-5.49-7.1-9.92-14.75-13.82-22.82-12.85-26.61-14.96-58.05-8.93-86.75,2.49-11.85,6.51-22.99,11.75-33.89,5.26-10.93,12.14-20.94,19.01-30.91,3.56-5.18,7.73-9.75,11.47-14.76,3.11-4.16,6.19-8.25,9.64-12.14,6.4-7.21,13.23-14.56,21.25-19.96,7.86-5.29,15.96-9.83,25.26-12,4.85-1.13,9.63-2.6,14.5-3.63,4.94-1.04,28-2.23,33.14-3.39Z"/>
    <g>
      <circle cx="3029.6" cy="300.09" r="9.33"/>
      <path d="M2860.45,300.09c0,5.15-4.18,9.33-9.33,9.33s-9.33-4.18-9.33-9.33,4.18-9.33,9.33-9.33,9.33,4.18,9.33,9.33Z"/>
    </g>
    <path d="M2957.11,443.19c-3.45-5.91-9.85-9.88-17.18-9.88s-13.74,3.97-17.18,9.88l-37.58-16.91v53.81l37.58-16.91c3.45,5.91,9.85,9.88,17.18,9.88s13.74-3.97,17.18-9.88l37.58,16.91v-53.81l-37.58,16.91Z"/>
    <path d="M2959.65,363.79h-38.59c-1.65,0-3.18-.85-4.04-2.25-.86-1.4-.94-3.15-.21-4.62l19.3-38.59c.8-1.61,2.45-2.63,4.25-2.63s3.44,1.02,4.25,2.63l19.3,38.59c.74,1.47.66,3.22-.21,4.62-.87,1.4-2.39,2.25-4.04,2.25ZM2928.75,354.29h23.22l-11.61-23.22-11.61,23.22Z"/>
    <path d="M2940.36,404.43c-17.93,0-34.85-5.52-46.42-15.14-2.02-1.68-2.29-4.67-.61-6.69,1.68-2.02,4.67-2.29,6.69-.61,9.89,8.23,24.6,12.94,40.35,12.94s30.45-4.72,40.35-12.94c2.02-1.68,5.01-1.4,6.69.61,1.68,2.02,1.4,5.01-.61,6.69-11.57,9.62-28.49,15.14-46.42,15.14Z"/>
  </g>
  <g>
    <path class="cls-4" d="M370.96,929.14c-1.98.45-4.3.56-6.34.81-6.9.87-14.44.88-21.33.02-18.81-2.35-37.92-8.95-54.77-17.49-36.65-18.57-63.56-50.76-77.35-89.35-3.86-10.8-6.22-22.22-8.54-33.44-2.1-10.21-3.7-20.61-4.14-31.04-.9-21.31,2.15-43.42,11.05-63,15.75-34.68,51.27-58.81,87.36-68.25,40.78-10.67,84.91-5.2,123.8,9.85,19.16,7.42,37.68,17.3,53.2,30.89,7.35,6.44,14.33,12.98,20.33,20.74,5.49,7.1,9.92,14.75,13.82,22.82,12.85,26.61,14.96,58.05,8.93,86.75-2.49,11.85-6.51,22.99-11.75,33.89-5.26,10.93-12.14,20.94-19.01,30.91-3.56,5.18-7.73,9.75-11.47,14.76-3.11,4.16-6.19,8.25-9.64,12.14-6.4,7.21-13.23,14.56-21.25,19.96-7.86,5.29-15.96,9.83-25.26,12-4.85,1.13-9.63,2.6-14.5,3.63-4.94,1.04-28,2.23-33.14,3.39Z"/>
    <g>
      <circle cx="413.43" cy="743.88" r="9.33" transform="translate(-159.85 114.89) rotate(-13.28)"/>
      <circle cx="309.58" cy="743.88" r="9.33" transform="translate(-261.1 175.09) rotate(-22.5)"/>
    </g>
    <path d="M365.32,798.57h-20.43c-1.63,0-3.15-.84-4.02-2.22-.87-1.38-.97-3.11-.26-4.58l16.61-34.62c1.13-2.37,3.97-3.36,6.34-2.23,2.37,1.13,3.36,3.97,2.23,6.34l-13.35,27.81h12.88c2.62,0,4.75,2.13,4.75,4.75s-2.13,4.75-4.75,4.75Z"/>
    <path d="M355.47,859.18c-9.54,0-17.86-1.79-24.75-4.2-21.48-7.52-33.66-22.36-34.17-22.99-1.65-2.04-1.33-5.03.71-6.68,2.04-1.65,5.03-1.33,6.68.7.23.28,11.35,13.62,30.31,20.14,25.38,8.71,52.4,1.71,80.3-20.84,2.04-1.65,5.03-1.33,6.68.71,1.65,2.04,1.33,5.03-.71,6.68-25,20.2-47.17,26.48-65.05,26.48Z"/>
    <path d="M426.52,842.74c-1.22,0-2.43-.46-3.36-1.39l-17.97-17.97c-1.86-1.85-1.86-4.86,0-6.72,1.86-1.85,4.86-1.85,6.72,0l17.97,17.97c1.86,1.85,1.86,4.86,0,6.72-.93.93-2.14,1.39-3.36,1.39Z"/>
    <path d="M291.82,842.17c-1.22,0-2.43-.46-3.36-1.39-1.86-1.85-1.86-4.86,0-6.72l16.84-16.84c1.86-1.86,4.86-1.86,6.72,0,1.85,1.85,1.85,4.86,0,6.72l-16.84,16.84c-.93.93-2.14,1.39-3.36,1.39Z"/>
  </g>
  <g>
    <path class="cls-3" d="M830.6,930.57c-8.87,1.99-18.16,2.64-27.2,3.4-19.63,1.66-39.27-.72-58.26-5.83-21.27-5.72-41.94-16.42-58.95-30.38-8.81-7.23-16.49-15.53-23.45-24.54-7.84-10.15-14.02-21.18-19.57-32.69-4.7-9.76-7.84-19.67-10.53-30.14-2.76-10.73-4.54-21.59-4.82-32.69-.27-11.09-.11-21.97,1.22-33,1.28-10.69,3.74-21.03,6.57-31.4,2.53-9.27,6.61-18.41,11.02-26.94,4.03-7.79,9.24-15.09,14.81-21.85,11.14-13.54,25.2-24.25,41.62-30.57,7.74-2.98,15.61-5.63,23.62-7.79,8.96-2.41,18-3.64,27.16-5,7.72-1.15,15.38-2.21,23.16-2.81,7.89-.61,15.82-.38,23.71.12,7.91.5,16.04,1.59,23.7,3.65,8.41,2.26,16.77,4.59,25.23,6.63,16.71,4.04,33.07,11.58,47.93,20.11,6.17,3.54,11.51,7.85,17.09,12.23,6.21,4.88,12.24,10.51,17.11,16.73,8.78,11.19,15.37,23.49,19.7,37.02,2.11,6.6,4.72,12.95,6.23,19.74,1.66,7.46,2.65,14.82,3.22,22.45.96,12.76,1.06,26.09-1.46,38.68-1.42,7.09-2.46,14.34-4.92,21.17-2.32,6.42-4.69,12.8-7.52,19.01-1.34,2.95-3.05,5.76-4.74,8.53-1.86,3.06-3.6,6.19-5.7,9.1-3.91,5.4-7.74,10.87-12,16-9.72,11.7-20.29,22.69-32.27,32.1-5.98,4.7-12.35,8.66-19.1,12.17-3.7,1.93-7.64,3.86-11.55,5.31-3.92,1.45-23.96,9.91-31.09,11.5Z"/>
    <circle cx="757.95" cy="765.74" r="9.33" transform="translate(-319.47 760.23) rotate(-45)"/>
    <circle cx="814.52" cy="765.74" r="9.33" transform="translate(-71.8057 1447.0897) rotate(-80.7825)"/>
    <path d="M786.07,840.51c-40.41,0-57.42-22.94-58.12-23.92-1.54-2.13-1.05-5.1,1.07-6.63,2.13-1.54,5.1-1.05,6.63,1.07.59.8,15.12,19.97,50.42,19.97s50.27-19.77,50.42-19.97c1.53-2.13,4.5-2.61,6.63-1.07,2.13,1.53,2.61,4.5,1.07,6.63-.7.98-17.72,23.92-58.12,23.92Z"/>
  </g>
  <g>
    <path class="cls-7" d="M1212.15,924.5c-3.68-1.04-7.33-2.15-10.94-3.42-9.4-3.29-18.12-7.73-26.65-12.84-8.59-5.14-16.78-11.13-24.67-17.28-10.18-7.94-19.79-16.99-28.33-26.67-14.16-16.04-26.28-34.11-35.2-53.58-4.1-8.96-7.63-17.84-9.47-27.56-1.81-9.56-2.85-19.09-2.85-28.83,0-17.71,3.98-35.86,12-51.72,8.67-17.16,19.41-33.66,33.66-46.75,6.78-6.23,13.19-12.87,20.64-18.33,7.64-5.6,16.06-10.05,24.74-13.8,16.5-7.12,34.91-9.91,52.8-9.91s37.25,3.42,55.23,7.81c7.06,1.72,13.77,4.2,20.56,6.75,6.63,2.48,13.61,5.26,19.57,9.12,11.44,7.4,22.45,15.45,32.27,24.93,4.36,4.21,8.51,8.64,12.36,13.33,3.98,4.84,7.15,10.02,10.6,15.24,6.65,10.06,11.51,21.1,15.46,32.46,3.79,10.91,5.54,22.72,7.2,34.11,1.69,11.56,2.57,23.63,1.28,35.26-1.45,13.04-3.92,25.88-7.61,38.48-3.94,13.42-10.11,26.43-18.65,37.53-8.96,11.64-19.76,22.09-31.81,30.53-6.49,4.55-13.07,8.68-19.94,12.63-6.85,3.94-14.7,7.52-22.28,9.77-8.95,2.65-18.49,3.51-27.76,4.17-5.32.38-10.61.64-15.94.72-4.97.07-29.82-.31-36.26-2.13Z"/>
    <g>
      <path d="M1342.25,732h-225.97c-2.62,0-4.75-2.13-4.75-4.75s2.13-4.75,4.75-4.75h225.97c2.62,0,4.75,2.13,4.75,4.75s-2.13,4.75-4.75,4.75Z"/>
      <path d="M1184.86,727.25h-39.13c3.59,14.52,22.98,36.3,39.13,36.3s35.54-21.78,39.13-36.3h-39.13Z"/>
      <path d="M1273.67,727.25h-39.13c3.59,14.52,22.98,36.3,39.13,36.3s35.54-21.78,39.13-36.3h-39.13Z"/>
      <path d="M1251.24,682.89c7.91-20.88,14.58-42.3,18.99-64.2,1.2-5.97-7.95-8.52-9.16-2.53-4.41,21.9-11.08,43.32-18.99,64.2-2.17,5.72,7.01,8.2,9.16,2.53h0Z"/>
      <path d="M1237.88,681.62c1.35-23.96,2.96-47.94,3.15-71.95.05-6.11-9.45-6.12-9.5,0-.19,24.01-1.79,47.99-3.15,71.95-.34,6.11,9.16,6.09,9.5,0h0Z"/>
      <path d="M1223.52,679.84c-2.48-19.45-4.2-39.16-4.26-58.78-.02-6.11-9.52-6.12-9.5,0,.06,19.62,1.78,39.33,4.26,58.78.76,5.98,10.27,6.06,9.5,0h0Z"/>
      <path d="M1208.99,678.58c-6.39-21.93-9.45-44.75-11.37-67.46-.51-6.05-10.01-6.1-9.5,0,1.98,23.53,5.09,47.26,11.71,69.98,1.71,5.86,10.88,3.37,9.16-2.53h0Z"/>
    </g>
    <path d="M1235.88,851.97c-29.44,0-53.38-21.65-53.38-48.26,0-2.62,2.13-4.75,4.75-4.75h97.27c2.62,0,4.75,2.13,4.75,4.75,0,26.61-23.95,48.26-53.38,48.26ZM1192.32,808.46c2.66,19.14,21.18,34.01,43.56,34.01s40.9-14.87,43.56-34.01h-87.11Z"/>
  </g>
  <g>
    <g>
      <circle cx="410.44" cy="280.75" r="9.33" transform="translate(-78.31 372.46) rotate(-45)"/>
      <circle cx="306.59" cy="280.75" r="9.33" transform="translate(-19.77 538.26) rotate(-80.76)"/>
    </g>
    <path class="cls-5" d="M288.19,168.63c7.64-5.32,15.58-11.06,24.45-14.25,10.65-3.83,22.32-4.87,33.57-4.84,5.83.02,11.4.06,17.18.88,6.28.89,12.58,1.64,18.84,2.69,13.49,2.27,27.39,5.84,39.71,11.87,5.86,2.87,11.53,5.9,17.07,9.37,5.87,3.68,12,7.09,17.44,11.42,11.68,9.31,22.74,19.94,32.09,31.59,7.54,9.39,13.49,19.63,18.77,30.44,3.08,6.29,5.29,12.78,7.28,19.48,2.27,7.65,4.72,15.15,6.63,22.91,1.29,5.23,2.25,10.58,2.92,15.91.76,6.03,1.84,12.02,2.17,18.11.31,5.86-.1,11.66-.98,17.45-1.02,6.7-1.69,13.44-3.62,19.96-1.31,4.42-3.01,8.67-4.3,13.1-1.65,5.67-4.2,11.12-6.93,16.34-5.82,11.09-12.95,21.33-21.33,30.59-6.52,7.2-12.91,14.69-20.01,21.33-6.85,6.41-14.77,11.4-23.22,15.41-2.88,1.36-5.85,2.55-8.66,4.04-3.38,1.79-6.8,3.66-10.49,4.72-3.34.96-6.75,1.69-10.08,2.66-3.97,1.16-7.98,2.59-12.12,3.06-13.53,1.53-27.03,3.2-40.62,4.13-2.84.19-5.71.07-8.56.06-3.53,0-7.03.33-10.56.33-8,0-16.06-1.49-23.79-3.43-12.87-3.24-27.2-4.78-38.96-11.28-4.85-2.68-9.89-5.12-14.86-7.57-6.27-3.09-12.14-6.85-17.89-10.81-4.33-2.99-9.62-5.86-12.9-10.09-1.63-2.09-3.66-3.57-5.48-5.48-2.12-2.23-4.07-4.71-6.03-7.07-6.9-8.35-13.33-17.13-18.12-26.88-2.08-4.23-3.52-8.76-5.16-13.19-2.09-5.65-4.7-11.29-6.3-17.1-1.3-4.72-2.54-9.41-4.05-14.06-.84-2.59-1.06-5.24-1.64-7.87-.71-3.23-1.84-6.49-2.19-9.78-1.48-14.14-2.42-28.3-.62-42.45.75-5.89,2.8-12.14,4.76-17.73,2.48-7.07,6.45-13.89,10.1-20.42,9.07-16.21,21.91-30.42,34.97-43.51,6.76-6.77,13.6-13.64,21.07-19.62,4.09-3.28,8.6-6.39,12.95-9.31,2.01-1.35,4.15-2.47,6.14-3.85,2.88-1.99,5.92-3.47,11.37-7.27Z"/>
    <path d="M358.52,337.15c-1.21,0-2.43-.46-3.35-1.39-1.86-1.85-1.86-4.86-.01-6.72,4.37-4.38,7.33-7.19,9.38-9.01-4.2-4.82-13.43-14.4-21.9-22.87-1.86-1.85-1.86-4.86,0-6.72,1.86-1.85,4.86-1.85,6.72,0,27.32,27.32,27,28.66,26.31,31.61-.35,1.47-1.33,2.66-2.67,3.29-1.49,1.04-6.85,6.13-11.11,10.4-.93.93-2.15,1.4-3.36,1.4Z"/>
    <path d="M358.48,403.2c-7.72,0-15.72-1.78-23.27-5.25-7.88-3.62-13.08-10.05-14.62-18.1-.49-2.58,1.19-5.07,3.77-5.56,2.58-.49,5.07,1.19,5.56,3.77.98,5.09,4.09,8.88,9.26,11.26,9,4.14,18.67,5.4,27.23,3.56,9.19-1.98,17.11-7.65,21.19-15.19,1.25-2.31,4.13-3.17,6.44-1.92,2.31,1.25,3.17,4.13,1.92,6.44-5.38,9.94-15.68,17.4-27.55,19.95-3.22.69-6.55,1.03-9.93,1.03Z"/>
    <g>
      <circle cx="401.13" cy="280.79" r="9.33" transform="translate(-81.06 365.88) rotate(-45)"/>
      <circle cx="297.27" cy="280.79" r="9.33" transform="translate(-27.63 529.09) rotate(-80.76)"/>
    </g>
  </g>
  <g>
    <path class="cls-7" d="M2469.9,186.13c8.87-1.99,18.16-2.64,27.2-3.4,19.63-1.66,39.27.72,58.26,5.83,21.27,5.72,41.94,16.42,58.95,30.38,8.81,7.23,16.49,15.53,23.45,24.54,7.84,10.15,14.02,21.18,19.57,32.69,4.7,9.76,7.84,19.67,10.53,30.14,2.76,10.73,4.54,21.59,4.82,32.69.27,11.09.11,21.97-1.22,33-1.28,10.69-3.74,21.03-6.57,31.4-2.53,9.27-6.61,18.41-11.02,26.94-4.03,7.79-9.24,15.09-14.81,21.85-11.14,13.54-25.2,24.25-41.62,30.57-7.74,2.98-15.61,5.63-23.62,7.79-8.96,2.41-18,3.64-27.16,5-7.72,1.15-15.38,2.21-23.16,2.81-7.89.61-15.82.38-23.71-.12-7.91-.5-16.04-1.59-23.7-3.65-8.41-2.26-16.77-4.59-25.23-6.63-16.71-4.04-33.07-11.58-47.93-20.11-6.17-3.54-11.51-7.85-17.09-12.23-6.21-4.88-12.24-10.51-17.11-16.73-8.78-11.19-15.37-23.49-19.7-37.02-2.11-6.6-4.73-12.95-6.23-19.74-1.66-7.46-2.65-14.82-3.22-22.45-.96-12.76-1.06-26.09,1.46-38.68,1.42-7.09,2.46-14.34,4.92-21.17,2.32-6.42,4.69-12.8,7.52-19.01,1.34-2.95,3.05-5.76,4.74-8.53,1.86-3.06,3.6-6.19,5.7-9.1,3.91-5.4,7.74-10.87,12-16,9.72-11.7,20.29-22.69,32.27-32.1,5.98-4.7,12.35-8.66,19.1-12.17,3.7-1.93,7.64-3.86,11.55-5.31,3.92-1.45,23.96-9.91,31.09-11.5Z"/>
    <path d="M2524.02,358.8h-19.93c-2.03,0-3.84-1.29-4.49-3.22-.66-1.92-.02-4.05,1.59-5.29,7.48-5.78,8.49-23.33,8.25-29.6-.1-2.62,1.94-4.83,4.56-4.93,2.59-.09,4.83,1.93,4.93,4.55.09,2.17.48,17.59-5.22,28.99h10.32c2.62,0,4.75,2.13,4.75,4.75s-2.13,4.75-4.75,4.75Z"/>
    <path d="M2516.13,389.36c-.75,0-1.51-.02-2.28-.05-25.11-1.11-34.64-16.8-35.03-17.47-1.33-2.26-.58-5.17,1.68-6.5,2.25-1.33,5.15-.59,6.49,1.65.34.56,7.62,11.96,27.29,12.83,19.33.84,26.44-12.05,26.74-12.6,1.23-2.3,4.1-3.19,6.41-1.98,2.31,1.21,3.22,4.05,2.02,6.37-.38.75-9.44,17.75-33.3,17.75Z"/>
    <circle cx="2557.88" cy="297.21" r="9.33"/>
    <circle cx="2461.03" cy="297.21" r="9.33"/>
    <path d="M2583.93,261.13c-.68.05-1.38-.05-2.05-.31l-51.85-20.08c-1.83-.71-3.04-2.48-3.03-4.44l.18-57.66c0-2.15,1.45-4.02,3.53-4.58,2.07-.55,4.26.36,5.34,2.22l17.32,30.06,30.47-40.19c1.28-1.69,3.52-2.33,5.5-1.56,1.98.77,3.21,2.75,3.02,4.86l-4.55,50.23,33.05-10.55c2.04-.65,4.28.15,5.44,1.95,1.16,1.81.97,4.17-.47,5.76l-38.7,42.74c-.84.93-1.99,1.47-3.19,1.55ZM2536.51,233.07l45.76,17.72,24.67-27.25-23.06,7.36c-1.52.48-3.18.18-4.42-.82-1.24-1-1.9-2.55-1.76-4.13l3.7-40.86-24.78,32.69c-.96,1.27-2.5,1.97-4.08,1.87-1.59-.1-3.02-.99-3.82-2.37l-12.09-20.97-.12,36.76Z"/>
  </g>
  <g>
    <path class="cls-1" d="M2098.7,161.2c3.68,1.04,7.33,2.15,10.94,3.42,9.4,3.29,18.12,7.73,26.65,12.84,8.59,5.14,16.78,11.13,24.67,17.28,10.18,7.94,19.79,16.99,28.33,26.66,14.16,16.04,26.28,34.11,35.2,53.58,4.1,8.96,7.63,17.84,9.47,27.56,1.81,9.56,2.85,19.09,2.85,28.83,0,17.71-3.98,35.86-12,51.72-8.67,17.16-19.41,33.66-33.66,46.75-6.78,6.23-13.19,12.87-20.64,18.33-7.64,5.6-16.06,10.05-24.74,13.8-16.5,7.12-34.91,9.91-52.8,9.91s-37.25-3.42-55.23-7.81c-7.06-1.73-13.77-4.2-20.56-6.75-6.63-2.48-13.61-5.26-19.57-9.12-11.44-7.4-22.45-15.45-32.27-24.93-4.36-4.21-8.51-8.64-12.36-13.33-3.98-4.84-7.15-10.02-10.6-15.24-6.65-10.06-11.51-21.1-15.46-32.46-3.79-10.91-5.54-22.72-7.2-34.11-1.69-11.56-2.57-23.63-1.28-35.26,1.45-13.04,3.92-25.88,7.61-38.48,3.94-13.42,10.11-26.43,18.65-37.53,8.96-11.64,19.76-22.09,31.81-30.53,6.49-4.55,13.07-8.68,19.94-12.63,6.85-3.94,14.7-7.52,22.28-9.77,8.95-2.65,18.49-3.51,27.76-4.17,5.32-.38,10.61-.64,15.94-.72,4.97-.07,29.82.31,36.26,2.13Z"/>
    <circle cx="2028.04" cy="287.45" r="9.33"/>
    <circle cx="2124.89" cy="287.45" r="9.33"/>
    <path d="M2082.98,342.81h-19.93c-2.03,0-3.84-1.29-4.49-3.22-.66-1.92-.02-4.05,1.59-5.29,7.48-5.78,8.49-23.33,8.25-29.6-.1-2.62,1.94-4.83,4.56-4.93,2.59-.09,4.83,1.93,4.93,4.55.09,2.17.48,17.59-5.22,28.99h10.32c2.62,0,4.75,2.13,4.75,4.75s-2.13,4.75-4.75,4.75Z"/>
    <path d="M2075.09,373.37c-.75,0-1.51-.02-2.28-.05-25.11-1.11-34.64-16.8-35.03-17.47-1.33-2.26-.58-5.17,1.68-6.5,2.25-1.33,5.15-.59,6.49,1.65.34.56,7.62,11.96,27.29,12.83,19.33.84,26.44-12.05,26.74-12.6,1.23-2.3,4.1-3.19,6.41-1.98,2.31,1.21,3.22,4.05,2.02,6.37-.38.75-9.44,17.75-33.3,17.75Z"/>
  </g>
  <circle class="cls-5" cx="329.5" cy="1251.5" r="168.5"/>
  <path d="M341.45,1271.38c-1.21,0-2.43-.46-3.35-1.39-1.86-1.85-1.86-4.86-.01-6.72,4.37-4.38,7.33-7.19,9.38-9.01-4.2-4.82-13.43-14.4-21.9-22.87-1.86-1.85-1.86-4.86,0-6.72,1.86-1.85,4.86-1.85,6.72,0,27.32,27.32,27,28.66,26.31,31.61-.35,1.47-1.33,2.66-2.67,3.29-1.49,1.04-6.85,6.13-11.11,10.4-.93.93-2.15,1.4-3.36,1.4Z"/>
  <path d="M341.41,1337.43c-7.72,0-15.72-1.78-23.27-5.25-7.88-3.62-13.08-10.05-14.62-18.1-.49-2.58,1.19-5.07,3.77-5.56,2.58-.49,5.07,1.19,5.56,3.77.98,5.09,4.09,8.88,9.26,11.26,9,4.14,18.67,5.4,27.23,3.56,9.19-1.98,17.11-7.65,21.19-15.19,1.25-2.31,4.13-3.17,6.44-1.92,2.31,1.25,3.17,4.13,1.92,6.44-5.38,9.94-15.68,17.4-27.55,19.95-3.22.69-6.55,1.03-9.93,1.03Z"/>
  <g>
    <circle cx="384.06" cy="1215.02" r="9.33" transform="translate(-746.66 627.44) rotate(-45)"/>
    <circle cx="280.2" cy="1215.02" r="9.33" transform="translate(-964.0466 1296.389) rotate(-80.7554)"/>
  </g>
  <circle class="cls-1" cx="2141.5" cy="1214.5" r="168.5"/>
  <circle class="cls-7" cx="2595.5" cy="1214.5" r="168.5"/>
  <circle class="cls-2" cx="3079.5" cy="1187.5" r="168.5"/>
  <circle class="cls-4" cx="329.5" cy="1685.5" r="168.5"/>
  <circle class="cls-3" cx="783.5" cy="1685.5" r="168.5"/>
  <circle class="cls-7" cx="1267.5" cy="1658.5" r="168.5"/>
  <g>
    <circle cx="2089.13" cy="1180.46" r="9.33"/>
    <circle cx="2185.98" cy="1180.46" r="9.33"/>
    <path d="M2144.07,1235.82h-19.93c-2.03,0-3.84-1.29-4.49-3.22-.66-1.92-.02-4.05,1.59-5.29,7.48-5.78,8.49-23.33,8.25-29.6-.1-2.62,1.94-4.83,4.56-4.93,2.59-.09,4.83,1.93,4.93,4.55.09,2.17.48,17.59-5.22,28.99h10.32c2.62,0,4.75,2.13,4.75,4.75s-2.13,4.75-4.75,4.75Z"/>
    <path d="M2136.18,1266.38c-.75,0-1.51-.02-2.28-.05-25.11-1.11-34.64-16.8-35.03-17.47-1.33-2.26-.58-5.17,1.68-6.5,2.25-1.33,5.15-.59,6.49,1.65.34.56,7.62,11.96,27.29,12.83,19.33.84,26.44-12.05,26.74-12.6,1.23-2.3,4.1-3.19,6.41-1.98,2.31,1.21,3.22,4.05,2.02,6.37-.38.75-9.44,17.75-33.3,17.75Z"/>
  </g>
  <path d="M2603.73,1241.7h-19.93c-2.03,0-3.84-1.29-4.49-3.22-.66-1.92-.02-4.05,1.59-5.29,7.48-5.78,8.49-23.33,8.25-29.6-.1-2.62,1.94-4.83,4.56-4.93,2.59-.09,4.83,1.93,4.93,4.55.09,2.17.48,17.59-5.22,28.99h10.32c2.62,0,4.75,2.13,4.75,4.75s-2.13,4.75-4.75,4.75Z"/>
  <path d="M2595.84,1272.27c-.75,0-1.51-.02-2.28-.05-25.11-1.11-34.64-16.8-35.03-17.47-1.33-2.26-.58-5.17,1.68-6.5,2.25-1.33,5.15-.59,6.49,1.65.34.56,7.62,11.96,27.29,12.83,19.33.84,26.44-12.05,26.74-12.6,1.23-2.3,4.1-3.19,6.41-1.98,2.31,1.21,3.22,4.05,2.02,6.37-.38.75-9.44,17.75-33.3,17.75Z"/>
  <circle cx="2637.6" cy="1180.12" r="9.33"/>
  <circle cx="2540.74" cy="1180.12" r="9.33"/>
  <path d="M2663.64,1144.04c-.68.05-1.38-.05-2.05-.31l-51.85-20.08c-1.83-.71-3.04-2.48-3.03-4.44l.18-57.66c0-2.15,1.45-4.02,3.53-4.58,2.07-.55,4.26.36,5.34,2.22l17.32,30.06,30.47-40.19c1.28-1.69,3.52-2.33,5.5-1.56,1.98.77,3.21,2.75,3.02,4.86l-4.55,50.23,33.05-10.55c2.04-.65,4.28.15,5.44,1.95,1.16,1.81.97,4.17-.47,5.76l-38.7,42.74c-.84.93-1.99,1.47-3.19,1.55ZM2616.23,1115.97l45.76,17.72,24.67-27.25-23.06,7.36c-1.52.48-3.18.18-4.42-.82-1.24-1-1.9-2.55-1.76-4.13l3.7-40.86-24.78,32.69c-.96,1.27-2.5,1.97-4.08,1.87-1.59-.1-3.02-.99-3.82-2.37l-12.09-20.97-.12,36.76Z"/>
  <g>
    <circle cx="3170.6" cy="1197.69" r="9.33"/>
    <path d="M3001.44,1197.69c0,5.15-4.18,9.33-9.33,9.33s-9.33-4.18-9.33-9.33,4.18-9.33,9.33-9.33,9.33,4.18,9.33,9.33Z"/>
  </g>
  <path d="M3098.1,1340.79c-3.45-5.91-9.85-9.88-17.18-9.88s-13.74,3.97-17.18,9.88l-37.58-16.91v53.81l37.58-16.91c3.45,5.91,9.85,9.88,17.18,9.88s13.74-3.97,17.18-9.88l37.58,16.91v-53.81l-37.58,16.91Z"/>
  <path d="M3100.65,1261.39h-38.59c-1.65,0-3.18-.85-4.04-2.25-.86-1.4-.94-3.15-.21-4.62l19.3-38.59c.8-1.61,2.45-2.63,4.25-2.63s3.44,1.02,4.25,2.63l19.3,38.59c.74,1.47.66,3.22-.21,4.62-.87,1.4-2.39,2.25-4.04,2.25ZM3069.74,1251.89h23.22l-11.61-23.22-11.61,23.22Z"/>
  <path d="M3081.35,1302.03c-17.93,0-34.85-5.52-46.42-15.14-2.02-1.68-2.29-4.67-.61-6.69,1.68-2.02,4.67-2.29,6.69-.61,9.89,8.23,24.6,12.94,40.35,12.94s30.45-4.72,40.35-12.94c2.02-1.68,5.01-1.4,6.69.61,1.68,2.02,1.4,5.01-.61,6.69-11.57,9.62-28.49,15.14-46.42,15.14Z"/>
  <g>
    <circle cx="386.89" cy="1663.24" r="9.33" transform="translate(-371.79 133.38) rotate(-13.28)"/>
    <circle cx="283.04" cy="1663.24" r="9.33" transform="translate(-614.95 234.92) rotate(-22.5)"/>
  </g>
  <path d="M338.78,1717.93h-20.43c-1.63,0-3.15-.84-4.02-2.22-.87-1.38-.97-3.11-.26-4.58l16.61-34.62c1.13-2.37,3.97-3.36,6.34-2.23,2.37,1.13,3.36,3.97,2.23,6.34l-13.35,27.81h12.88c2.62,0,4.75,2.13,4.75,4.75s-2.13,4.75-4.75,4.75Z"/>
  <path d="M328.93,1778.54c-9.54,0-17.86-1.79-24.75-4.2-21.48-7.52-33.66-22.36-34.17-22.99-1.65-2.04-1.33-5.03.71-6.68,2.04-1.65,5.03-1.33,6.68.7.23.28,11.35,13.62,30.31,20.14,25.38,8.71,52.4,1.71,80.3-20.84,2.04-1.65,5.03-1.33,6.68.71,1.65,2.04,1.33,5.03-.71,6.68-25,20.2-47.17,26.48-65.05,26.48Z"/>
  <path d="M399.98,1762.1c-1.22,0-2.43-.46-3.36-1.39l-17.97-17.97c-1.86-1.85-1.86-4.86,0-6.72,1.86-1.85,4.86-1.85,6.72,0l17.97,17.97c1.86,1.85,1.86,4.86,0,6.72-.93.93-2.14,1.39-3.36,1.39Z"/>
  <path d="M265.28,1761.54c-1.22,0-2.43-.46-3.36-1.39-1.86-1.85-1.86-4.86,0-6.72l16.84-16.84c1.86-1.86,4.86-1.86,6.72,0,1.85,1.85,1.85,4.86,0,6.72l-16.84,16.84c-.93.93-2.14,1.39-3.36,1.39Z"/>
  <circle cx="755.52" cy="1655.28" r="9.33" transform="translate(-949.1731 1019.0543) rotate(-45)"/>
  <circle cx="812.1" cy="1655.28" r="9.33" transform="translate(-951.8929 2191.7446) rotate(-80.7825)"/>
  <path d="M783.64,1730.05c-40.41,0-57.42-22.94-58.12-23.92-1.54-2.13-1.05-5.1,1.07-6.63,2.13-1.54,5.1-1.05,6.63,1.07.59.8,15.12,19.97,50.42,19.97s50.27-19.77,50.42-19.97c1.53-2.13,4.5-2.61,6.63-1.07,2.13,1.53,2.61,4.5,1.07,6.63-.7.98-17.72,23.92-58.12,23.92Z"/>
  <g>
    <path d="M1380.65,1658.32h-225.97c-2.62,0-4.75-2.13-4.75-4.75s2.13-4.75,4.75-4.75h225.97c2.62,0,4.75,2.13,4.75,4.75s-2.13,4.75-4.75,4.75Z"/>
    <path d="M1223.26,1653.56h-39.13c3.59,14.52,22.98,36.3,39.13,36.3s35.54-21.78,39.13-36.3h-39.13Z"/>
    <path d="M1312.07,1653.56h-39.13c3.59,14.52,22.98,36.3,39.13,36.3s35.54-21.78,39.13-36.3h-39.13Z"/>
    <path d="M1289.64,1609.2c7.91-20.88,14.58-42.3,18.99-64.2,1.2-5.97-7.95-8.52-9.16-2.53-4.41,21.9-11.08,43.32-18.99,64.2-2.17,5.72,7.01,8.2,9.16,2.53h0Z"/>
    <path d="M1276.28,1607.94c1.35-23.96,2.96-47.94,3.15-71.95.05-6.11-9.45-6.12-9.5,0-.19,24.01-1.79,47.99-3.15,71.95-.34,6.11,9.16,6.09,9.5,0h0Z"/>
    <path d="M1261.92,1606.15c-2.48-19.45-4.2-39.16-4.26-58.78-.02-6.11-9.52-6.12-9.5,0,.06,19.62,1.78,39.33,4.26,58.78.76,5.98,10.27,6.06,9.5,0h0Z"/>
    <path d="M1247.4,1604.89c-6.39-21.93-9.45-44.75-11.37-67.46-.51-6.05-10.01-6.1-9.5,0,1.98,23.53,5.09,47.26,11.71,69.98,1.71,5.86,10.88,3.37,9.16-2.53h0Z"/>
  </g>
  <g>
    <path d="M838.76,1193.67c0,5.15-4.18,9.33-9.33,9.33s-9.33-4.18-9.33-9.33,4.18-9.33,9.33-9.33,9.33,4.18,9.33,9.33Z"/>
    <path d="M734.9,1193.67c0,5.15-4.18,9.33-9.33,9.33s-9.33-4.18-9.33-9.33,4.18-9.33,9.33-9.33,9.33,4.18,9.33,9.33Z"/>
    <path d="M781.7,1263.22h-25.19c-1.54,0-2.96-.79-3.77-2.1-.81-1.3-.89-2.94-.2-4.31l20.15-40.65c1.09-2.2,3.75-3.09,5.95-2,2.2,1.09,3.09,3.75,2,5.95l-16.97,34.24h18.04c2.45,0,4.44,1.99,4.44,4.44s-1.99,4.44-4.44,4.44Z"/>
    <path d="M723.68,1050.29c-11.12,12.14-21.96,25.35-30.21,39.64-6.98,12.08-8.02,27.44,5.91,34.84,11.82,6.28,27.07,5.11,39.83,3.18,15.01-2.28,29.66-7.8,42.47-15.95,11-7,26.34-18.11,23.97-33.09-2.38-15.04-19.45-19.79-32.3-16.31-13.19,3.57-25.21,13.43-30.08,26.33-4.81,12.74-.36,26.82,8.92,36.3,11.77,12.02,29.35,14.69,45.3,11.38,17.8-3.7,32.76-14.82,46.49-26.17,4.72-3.9-2.04-10.59-6.72-6.72-18.13,14.99-43.24,32.11-67.79,21.96-9.31-3.85-17.25-12.62-18.56-22.83-1.39-10.79,5.6-20.59,14.29-26.22,8.18-5.29,26.14-10.77,30.7,2.2,3.8,10.79-12.28,20.73-19.68,25.37-9.82,6.15-20.59,10.55-31.88,13.12-10.78,2.46-23.32,3.95-34.21,1.34-4.56-1.09-9.8-3.17-11.79-7.8-2.75-6.36,1.68-13.65,4.98-18.85,7.9-12.48,17.11-24.12,27.08-35.01,4.12-4.5-2.58-11.24-6.72-6.72h0Z"/>
    <path d="M729.91,1310.4c22.95-.18,45.89-.35,68.84-.53-1.48-1.48-2.96-2.96-4.44-4.44-.02.88-.12,1.77-.23,2.65.14-1.1-.27,1.54-.36,1.98-.25,1.25-.56,2.5-.91,3.73-1.79,6.16-5.07,11.93-10.05,16.06-7.02,5.82-18.26,8.56-27.17,6.63-8.23-1.78-13.47-9.09-16.79-16.32-2.2-4.81-3.83-10.12-4.61-15.37-.84-5.63-9.4-3.24-8.56,2.36,2.2,14.65,10.2,31.87,25,37.13,10.38,3.69,24.29,1.09,33.53-4.58,7.44-4.56,12.72-11.58,15.88-19.64,1.79-4.58,3.03-9.69,3.15-14.63.06-2.39-2.08-4.46-4.44-4.44-22.95.18-45.89.35-68.84.53-5.71.04-5.72,8.92,0,8.88Z"/>
  </g>
  <circle class="cls-1" cx="1729.5" cy="1663.5" r="168.5"/>
  <path d="M1727.41,1734.1c-29.44,0-53.38-21.65-53.38-48.26,0-2.62,2.13-4.75,4.75-4.75h97.27c2.62,0,4.75,2.13,4.75,4.75,0,26.61-23.95,48.26-53.38,48.26ZM1683.86,1690.59c2.66,19.14,21.18,34.01,43.56,34.01s40.9-14.87,43.56-34.01h-87.11Z"/>
  <g>
    <path d="M1238.93,1755.99c9.91,7.76,21.89,13.41,34.77,12.69,12.04-.67,23.52-5.8,32.54-13.69,4.61-4.03-2.13-10.73-6.72-6.72-7.05,6.16-16.42,10.39-25.83,10.91-10.25.57-20.09-3.68-28.05-9.91-4.76-3.73-11.53,2.95-6.72,6.72h0Z"/>
    <path d="M1311,1765.36c-1.05,0-2.11-.35-2.99-1.06-11.57-9.38-15.69-23.34-15.86-23.93-.72-2.52.73-5.15,3.25-5.88,2.52-.73,5.15.73,5.87,3.24.05.17,3.54,11.75,12.71,19.19,2.04,1.65,2.35,4.64.7,6.68-.94,1.16-2.31,1.76-3.69,1.76Z"/>
  </g>
  <g>
    <circle cx="1704.45" cy="1634.51" r="9.33" transform="translate(-277.9391 2917.8356) rotate(-76.7175)"/>
    <circle cx="1749.89" cy="1634.03" r="9.33" transform="translate(-242.4728 2961.6859) rotate(-76.7175)"/>
  </g>
</svg>